<svg width="106" height="56" viewBox="0 0 106 56" fill="none" xmlns="http://www.w3.org/2000/svg">
<rect x="1" y="0.5" width="104" height="55" rx="7.5" fill="white" stroke="#D1B991"/>
<g clip-path="url(#clip0_138_47)">
<path d="M45.1684 40.5131C44.6558 40.1721 44.2015 39.7507 43.8229 39.2651C43.4065 38.764 43.0207 38.2381 42.6675 37.6905C41.8389 36.4765 41.189 35.1497 40.7378 33.7507C40.1959 32.1257 39.9335 30.5681 39.9335 29.0447C39.9335 27.3433 40.3015 25.8581 41.0214 24.6101C41.555 23.6346 42.3396 22.8195 43.294 22.249C44.2188 21.6745 45.2815 21.3601 46.3701 21.339C46.7512 21.339 47.1615 21.3942 47.597 21.4998C47.9098 21.5884 48.2908 21.7281 48.7564 21.902C49.3487 22.1303 49.6745 22.2701 49.785 22.3042C50.132 22.431 50.4237 22.4862 50.6528 22.4862C50.8267 22.4862 51.072 22.431 51.3507 22.3465C51.5075 22.2912 51.8033 22.1937 52.2266 22.0125C52.6458 21.8598 52.9757 21.729 53.2382 21.6315C53.6403 21.5128 54.0295 21.4031 54.3765 21.3479C54.7878 21.2831 55.2052 21.2659 55.6204 21.2967C56.34 21.3437 57.0487 21.4962 57.724 21.7493C58.8282 22.1937 59.7211 22.8876 60.3857 23.874C60.1048 24.0471 59.8412 24.2468 59.5984 24.4703C59.07 24.9388 58.6198 25.4888 58.2651 26.0994C57.8014 26.9339 57.561 27.8739 57.5672 28.8286C57.5842 30.001 57.8848 31.0337 58.4772 31.9266C58.9126 32.5884 59.4786 33.1544 60.1403 33.5898C60.4792 33.8181 60.7708 33.975 61.0503 34.0806C60.9195 34.4868 60.7798 34.8801 60.6148 35.2701C60.2408 36.1447 59.7874 36.9831 59.2604 37.775C58.7908 38.4567 58.4227 38.9645 58.1432 39.3025C57.7077 39.8185 57.2885 40.2125 56.8652 40.4871C56.3996 40.7959 55.8495 40.9608 55.2905 40.9608C54.912 40.9754 54.5335 40.9296 54.1693 40.8251C53.8565 40.7195 53.5469 40.605 53.2422 40.4741C52.9255 40.3287 52.5988 40.2057 52.2648 40.1061C51.439 39.894 50.5733 39.8926 49.7468 40.102C49.408 40.1995 49.0822 40.3133 48.7605 40.453C48.3079 40.6431 48.0073 40.7707 47.8334 40.8251C47.4865 40.9267 47.1265 40.9901 46.7625 41.0112C46.1995 41.0112 45.6746 40.8503 45.1546 40.5245L45.1684 40.5131ZM52.5947 20.5135C51.8585 20.8815 51.1557 21.0383 50.4578 20.9871C50.3481 20.2843 50.4578 19.5653 50.7495 18.778C50.9978 18.111 51.3647 17.4944 51.8325 16.958C52.3265 16.3933 52.926 15.9305 53.5973 15.5954C54.3123 15.2273 54.994 15.0283 55.6456 14.999C55.7301 15.7351 55.6456 16.4591 55.375 17.2415C55.1246 17.9332 54.7584 18.5772 54.292 19.146C53.8159 19.7115 53.2316 20.1761 52.5735 20.5126L52.5947 20.5135Z" fill="black"/>
</g>
<defs>
<clipPath id="clip0_138_47">
<rect width="26" height="26" fill="white" transform="translate(37.5 15)"/>
</clipPath>
</defs>
</svg>
