<svg width="106" height="56" viewBox="0 0 106 56" fill="none" xmlns="http://www.w3.org/2000/svg">
<rect x="1" y="0.5" width="104" height="55" rx="7.5" fill="white" stroke="#D1B991"/>
<path d="M43.9201 30.4656L43.0973 33.537L40.0902 33.6006C39.1915 31.9338 38.6818 30.0266 38.6818 28C38.6818 26.0403 39.1584 24.1922 40.0032 22.5649H40.0038L42.681 23.0558L43.8538 25.7169C43.6083 26.4325 43.4745 27.2007 43.4745 28C43.4746 28.8675 43.6318 29.6987 43.9201 30.4656Z" fill="#FBBB00"/>
<path d="M62.1116 25.792C62.2474 26.5069 62.3181 27.2452 62.3181 27.9998C62.3181 28.8459 62.2292 29.6712 62.0597 30.4673C61.4844 33.1764 59.9811 35.542 57.8987 37.216L57.898 37.2154L54.526 37.0433L54.0487 34.0641C55.4305 33.2537 56.5104 31.9855 57.0793 30.4673H50.7598V25.792H57.1715H62.1116Z" fill="#518EF8"/>
<path d="M57.898 37.2153L57.8986 37.216C55.8733 38.8439 53.3006 39.8179 50.4999 39.8179C45.9993 39.8179 42.0863 37.3023 40.0902 33.6004L43.9201 30.4653C44.9181 33.1289 47.4876 35.0251 50.4999 35.0251C51.7947 35.0251 53.0078 34.6751 54.0486 34.064L57.898 37.2153Z" fill="#28B446"/>
<path d="M58.0434 18.9024L54.2149 22.0368C53.1376 21.3635 51.8642 20.9745 50.4999 20.9745C47.4194 20.9745 44.8019 22.9576 43.8538 25.7167L40.0038 22.5648H40.0032C41.9701 18.7725 45.9324 16.1816 50.4999 16.1816C53.3675 16.1816 55.9967 17.2031 58.0434 18.9024Z" fill="#F14336"/>
</svg>
