<svg width="60" height="60" viewBox="0 0 60 60" fill="none" xmlns="http://www.w3.org/2000/svg">
<path d="M49.7206 6.91857C49.4303 6.62755 49.0855 6.39666 48.7058 6.23912C48.3262 6.08158 47.9191 6.00049 47.5081 6.00049C47.0971 6.00049 46.69 6.08158 46.3104 6.23912C45.9307 6.39666 45.5859 6.62755 45.2956 6.91857L24.5206 27.6936C24.2888 27.9249 24.105 28.1996 23.9795 28.502C23.8541 28.8044 23.7895 29.1287 23.7895 29.4561C23.7895 29.7835 23.8541 30.1077 23.9795 30.4101C24.105 30.7126 24.2888 30.9873 24.5206 31.2186L45.2956 51.9936C46.5206 53.2186 48.4956 53.2186 49.7206 51.9936C50.9456 50.7686 50.9456 48.7936 49.7206 47.5686L31.6206 29.4436L49.7456 11.3186C50.9456 10.1186 50.9456 8.11857 49.7206 6.91857Z" fill="#623D2A" stroke="#623D2A" stroke-width="0.2"/>
<path d="M33.9311 6.91809C33.6408 6.62707 33.296 6.39617 32.9163 6.23863C32.5367 6.08109 32.1297 6 31.7186 6C31.3076 6 30.9006 6.08109 30.5209 6.23863C30.1412 6.39617 29.7964 6.62707 29.5061 6.91809L8.73111 27.6931C8.49935 27.9244 8.31548 28.1991 8.19003 28.5015C8.06458 28.804 8 29.1282 8 29.4556C8 29.783 8.06458 30.1072 8.19003 30.4096C8.31548 30.7121 8.49935 30.9868 8.73111 31.2181L29.5061 51.9931C30.7311 53.2181 32.7061 53.2181 33.9311 51.9931C35.1561 50.7681 35.1561 48.7931 33.9311 47.5681L15.8311 29.4431L33.9561 11.3181C35.1561 10.1181 35.1561 8.11809 33.9311 6.91809Z" fill="#623D2A" stroke="#623D2A" stroke-width="0.2"/>
</svg>
