<svg width="60" height="60" viewBox="0 0 60 60" fill="none" xmlns="http://www.w3.org/2000/svg">
<path d="M10.2794 53.0814C10.5697 53.3724 10.9145 53.6033 11.2942 53.7609C11.6738 53.9184 12.0809 53.9995 12.4919 53.9995C12.9029 53.9995 13.31 53.9184 13.6896 53.7609C14.0693 53.6033 14.4141 53.3724 14.7044 53.0814L35.4794 32.3064C35.7112 32.0751 35.895 31.8004 36.0205 31.498C36.1459 31.1956 36.2105 30.8713 36.2105 30.5439C36.2105 30.2165 36.1459 29.8923 36.0205 29.5899C35.895 29.2874 35.7112 29.0127 35.4794 28.7814L14.7044 8.00642C13.4794 6.78142 11.5044 6.78142 10.2794 8.00642C9.0544 9.23142 9.0544 11.2064 10.2794 12.4314L28.3794 30.5564L10.2544 48.6814C9.0544 49.8814 9.0544 51.8814 10.2794 53.0814Z" fill="#623D2A" stroke="#623D2A" stroke-width="0.2"/>
<path d="M26.0689 53.0819C26.3592 53.3729 26.704 53.6038 27.0837 53.7614C27.4633 53.9189 27.8703 54 28.2814 54C28.6924 54 29.0994 53.9189 29.4791 53.7614C29.8588 53.6038 30.2036 53.3729 30.4939 53.0819L51.2689 32.3069C51.5007 32.0756 51.6845 31.8009 51.81 31.4985C51.9354 31.196 52 30.8718 52 30.5444C52 30.217 51.9354 29.8928 51.81 29.5904C51.6845 29.2879 51.5007 29.0132 51.2689 28.7819L30.4939 8.00691C29.2689 6.78191 27.2939 6.78191 26.0689 8.00691C24.8439 9.23191 24.8439 11.2069 26.0689 12.4319L44.1689 30.5569L26.0439 48.6819C24.8439 49.8819 24.8439 51.8819 26.0689 53.0819Z" fill="#623D2A" stroke="#623D2A" stroke-width="0.2"/>
</svg>
