<svg width="31" height="19" viewBox="0 0 31 19" fill="none" xmlns="http://www.w3.org/2000/svg">
<path d="M0.85433 1.70866C0.382497 1.70866 0 1.32616 0 0.85433C0 0.382497 0.382497 0 0.85433 0H29.9015C30.3734 0 30.7559 0.382497 30.7559 0.85433C30.7559 1.32616 30.3734 1.70866 29.9015 1.70866H0.85433ZM0.85433 10.252C0.382497 10.252 0 9.86946 0 9.39763C0 8.9258 0.382497 8.5433 0.85433 8.5433H29.9015C30.3734 8.5433 30.7559 8.9258 30.7559 9.39763C30.7559 9.86946 30.3734 10.252 29.9015 10.252H0.85433ZM0.85433 18.7953C0.382497 18.7953 0 18.4128 0 17.9409C0 17.4691 0.382497 17.0866 0.85433 17.0866H29.9015C30.3734 17.0866 30.7559 17.4691 30.7559 17.9409C30.7559 18.4128 30.3734 18.7953 29.9015 18.7953H0.85433Z" fill="#623D2A"/>
</svg>
