<svg width="100" height="100" viewBox="0 0 100 100" fill="none" xmlns="http://www.w3.org/2000/svg">
<g clip-path="url(#clip0_142_364)">
<path d="M96.4812 49.9978C98.0256 48.1993 99.1078 46.0513 99.6341 43.7399C100.16 41.4285 100.115 39.0236 99.5011 36.7339C98.8875 34.4441 97.7245 32.3387 96.113 30.6001C94.5015 28.8616 92.4902 27.5425 90.2534 26.7573C90.6917 24.4276 90.5549 22.026 89.8548 19.7611C89.1548 17.4962 87.9127 15.4363 86.2363 13.7601C84.5599 12.0839 82.4999 10.8421 80.2349 10.1424C77.9699 9.44263 75.5683 9.30611 73.2386 9.74466C72.454 7.50744 71.1352 5.49554 69.3966 3.88364C67.6581 2.27174 65.5524 1.10857 63.2623 0.495106C60.9722 -0.118356 58.567 -0.163562 56.2555 0.363412C53.944 0.890386 51.7961 1.97361 49.9982 3.51904C48.1997 1.97468 46.0517 0.892426 43.7403 0.36618C41.4289 -0.160066 39.024 -0.114414 36.7342 0.499173C34.4445 1.11276 32.339 2.27575 30.6005 3.88726C28.862 5.49877 27.5429 7.51012 26.7577 9.74683C24.4281 9.30898 22.0268 9.44611 19.7622 10.1463C17.4976 10.8465 15.438 12.0887 13.7621 13.765C12.0862 15.4414 10.8446 17.5013 10.1449 19.7661C9.44529 22.0309 9.30878 24.4322 9.74722 26.7617C7.51051 27.5469 5.49915 28.8659 3.88765 30.6045C2.27614 32.343 1.11314 34.4485 0.499551 36.7382C-0.114037 39.0279 -0.159696 41.4328 0.36655 43.7442C0.892796 46.0556 1.97507 48.2037 3.51943 50.0021C1.9746 51.8005 0.891994 53.9487 0.365598 56.2603C-0.160798 58.572 -0.115099 60.9771 0.498757 63.2671C1.11261 65.557 2.27606 67.6626 3.88812 69.4009C5.50018 71.1393 7.51216 72.458 9.74939 73.2425C9.31057 75.5721 9.44693 77.9736 10.1466 80.2385C10.8464 82.5034 12.0883 84.5633 13.7646 86.2394C15.441 87.9156 17.501 89.1572 19.766 89.8566C22.0311 90.5561 24.4325 90.6921 26.7621 90.253C27.5473 92.4897 28.8663 94.5011 30.6049 96.1126C32.3434 97.7241 34.4488 98.8871 36.7386 99.5007C39.0283 100.114 41.4332 100.16 43.7446 99.6337C46.056 99.1074 48.2041 98.0252 50.0025 96.4808C51.8009 98.0257 53.9491 99.1083 56.2607 99.6347C58.5724 100.161 60.9775 100.115 63.2675 99.5015C65.5574 98.8876 67.663 97.7242 69.4013 96.1121C71.1397 94.5001 72.4584 92.4881 73.243 90.2509C75.5726 90.6895 77.9741 90.5531 80.239 89.8534C82.504 89.1536 84.564 87.9118 86.2402 86.2355C87.9165 84.5593 89.1584 82.4993 89.8581 80.2343C90.5579 77.9694 90.6943 75.5679 90.2556 73.2382C92.4925 72.4532 94.504 71.1341 96.1156 69.3956C97.7272 67.657 98.8901 65.5514 99.5035 63.2615C100.117 60.9716 100.162 58.5666 99.6356 56.2552C99.1089 53.9438 98.0262 51.7959 96.4812 49.9978Z" fill="#9E845C"/>
<path d="M41.0246 69.0843L27.1301 55.1986C26.6028 54.6704 26.3066 53.9546 26.3066 53.2082C26.3066 52.4619 26.6028 51.746 27.1301 51.2179L28.8182 49.5277C29.3464 49.0004 30.0622 48.7042 30.8085 48.7042C31.5549 48.7042 32.2707 49.0004 32.7989 49.5277L42.899 59.6213L66.6855 34.3439C67.1973 33.8008 67.9037 33.483 68.6496 33.4603C69.3956 33.4375 70.12 33.7117 70.664 34.2226L72.3976 35.8586C72.9413 36.3705 73.2595 37.0774 73.2822 37.8238C73.305 38.5703 73.0304 39.2952 72.5189 39.8393L45.0724 69.0215C44.814 69.2969 44.5028 69.5175 44.1574 69.6703C43.812 69.823 43.4394 69.9048 43.0618 69.9106C42.6842 69.9165 42.3092 69.8464 41.9593 69.7044C41.6093 69.5625 41.2914 69.3516 41.0246 69.0843Z" fill="white"/>
</g>
<defs>
<clipPath id="clip0_142_364">
<rect width="100" height="100" fill="white"/>
</clipPath>
</defs>
</svg>
