<svg width="28" height="27" viewBox="0 0 28 27" fill="none" xmlns="http://www.w3.org/2000/svg">
<path d="M9.68601 26.812C10.8183 26.812 11.7363 25.894 11.7363 24.7617C11.7363 23.6294 10.8183 22.7114 9.68601 22.7114C8.55368 22.7114 7.63574 23.6294 7.63574 24.7617C7.63574 25.894 8.55368 26.812 9.68601 26.812Z" fill="#623D2A"/>
<path d="M22.1421 26.812C23.2744 26.812 24.1923 25.894 24.1923 24.7617C24.1923 23.6294 23.2744 22.7114 22.1421 22.7114C21.0097 22.7114 20.0918 23.6294 20.0918 24.7617C20.0918 25.894 21.0097 26.812 22.1421 26.812Z" fill="#623D2A"/>
<path d="M26.5924 5C26.5509 4.66859 26.5296 4.33452 26.5286 4C26.5296 3.66548 26.5509 3.33141 26.5924 3H5L5.5923 5H26.5924Z" fill="#623D2A"/>
<path d="M26.3827 3H26L23.3541 14.9663H9.68572L5.52141 1.78082C5.47636 1.6409 5.39814 1.51397 5.29342 1.41083C5.1887 1.30769 5.06058 1.23142 4.92 1.18852L1.18396 0.0403704C1.06909 0.00506943 0.94838 -0.00725895 0.828737 0.004089C0.709095 0.0154369 0.59286 0.050239 0.486667 0.106508C0.272203 0.220149 0.111665 0.414331 0.0403717 0.646337C-0.0309217 0.878343 -0.0071312 1.12917 0.10651 1.34363C0.22015 1.5581 0.414333 1.71863 0.646338 1.78993L3.91765 2.79228L8.10018 16.0051L6.60577 17.2261L6.48731 17.3446C6.11766 17.7706 5.90813 18.3121 5.89483 18.876C5.88152 19.4399 6.06526 19.9907 6.41441 20.4337C6.66277 20.7357 6.97838 20.9754 7.33597 21.1336C7.69357 21.2919 8.08323 21.3642 8.47379 21.3449H23.6822C23.9239 21.3449 24.1556 21.2489 24.3265 21.078C24.4974 20.9071 24.5934 20.6753 24.5934 20.4337C24.5934 20.192 24.4974 19.9602 24.3265 19.7893C24.1556 19.6184 23.9239 19.5224 23.6822 19.5224H8.32799C8.22306 19.5188 8.12082 19.4883 8.03116 19.4336C7.9415 19.379 7.86745 19.3022 7.81615 19.2106C7.76485 19.119 7.73804 19.0157 7.73831 18.9107C7.73858 18.8057 7.76593 18.7025 7.8177 18.6112L10.0138 16.7887H24.0831C24.2938 16.7939 24.4997 16.7259 24.6658 16.5963C24.832 16.4667 24.9481 16.2835 24.9943 16.078L27.8451 3C27.3451 3 26.904 3.00148 26.3827 3Z" fill="#623D2A"/>
</svg>
